<?xml version="1.0" encoding="UTF-8"?>
<svg version="1.1" xmlns="http://www.w3.org/2000/svg" width="144" height="144">
<path d="M0 0 C0.85207031 0.32742187 1.70414062 0.65484375 2.58203125 0.9921875 C17.71135712 7.52043205 27.76063757 21.61414721 33.9765625 36.30859375 C39.08669778 51.23305428 37.01000068 68.79221732 30.71484375 82.875 C23.18622778 97.97417408 10.56932039 108.06270309 -5 114 C-11.30285734 115.93173347 -17.11087559 116.3846782 -23.6875 116.375 C-24.65558594 116.37556396 -25.62367187 116.37612793 -26.62109375 116.37670898 C-33.39802944 116.27308438 -38.98886345 115.40811414 -45.34375 112.97265625 C-52.8168988 110.236165 -58.00298769 111.78031135 -65.4375 113.9375 C-77.62112588 117.43961298 -77.62112588 117.43961298 -84 117 C-85.16761255 112.81857455 -84.74883046 110.16046395 -83.49609375 106.03515625 C-83.16802734 104.90529297 -82.83996094 103.77542969 -82.50195312 102.61132812 C-81.79306886 100.24794699 -81.07953427 97.88595565 -80.36132812 95.52539062 C-80.03455078 94.39423828 -79.70777344 93.26308594 -79.37109375 92.09765625 C-78.9059436 90.55863647 -78.9059436 90.55863647 -78.43139648 88.98852539 C-77.91273281 85.39545123 -78.62438363 83.32379919 -80 80 C-85.65395983 65.96827487 -86.60362352 49.12811973 -81.25390625 34.8125 C-73.81416739 18.12523527 -62.9475766 6.8437771 -46.30859375 -0.73828125 C-31.80194484 -6.27033272 -14.2797005 -6.15188238 0 0 Z " fill="#41C352" transform="translate(96,16)"/>
<path d="M0 0 C0.85207031 0.32742187 1.70414062 0.65484375 2.58203125 0.9921875 C17.71135712 7.52043205 27.76063757 21.61414721 33.9765625 36.30859375 C39.08669778 51.23305428 37.01000068 68.79221732 30.71484375 82.875 C23.18622778 97.97417408 10.56932039 108.06270309 -5 114 C-11.30285734 115.93173347 -17.11087559 116.3846782 -23.6875 116.375 C-24.65558594 116.37556396 -25.62367187 116.37612793 -26.62109375 116.37670898 C-33.39802944 116.27308438 -38.98886345 115.40811414 -45.34375 112.97265625 C-52.8168988 110.236165 -58.00298769 111.78031135 -65.4375 113.9375 C-77.62112588 117.43961298 -77.62112588 117.43961298 -84 117 C-85.16761255 112.81857455 -84.74883046 110.16046395 -83.49609375 106.03515625 C-83.16802734 104.90529297 -82.83996094 103.77542969 -82.50195312 102.61132812 C-81.79306886 100.24794699 -81.07953427 97.88595565 -80.36132812 95.52539062 C-80.03455078 94.39423828 -79.70777344 93.26308594 -79.37109375 92.09765625 C-78.9059436 90.55863647 -78.9059436 90.55863647 -78.43139648 88.98852539 C-77.91273281 85.39545123 -78.62438363 83.32379919 -80 80 C-85.65395983 65.96827487 -86.60362352 49.12811973 -81.25390625 34.8125 C-73.81416739 18.12523527 -62.9475766 6.8437771 -46.30859375 -0.73828125 C-31.80194484 -6.27033272 -14.2797005 -6.15188238 0 0 Z M-62.2109375 27.6015625 C-68.13472144 35.5430545 -71.3881547 44.28229663 -71.3125 54.1875 C-71.30831055 54.93636475 -71.30412109 55.68522949 -71.29980469 56.45678711 C-71.14024411 64.34739719 -69.69825005 71.21023551 -65.6875 78.0625 C-63.06668536 82.91696348 -64.66261223 86.92273145 -66 92 C-66.4093393 94.66285989 -66.70240279 97.3216251 -67 100 C-65.46279297 99.65775391 -65.46279297 99.65775391 -63.89453125 99.30859375 C-62.53396422 99.0177139 -61.17328084 98.72737796 -59.8125 98.4375 C-59.13896484 98.28603516 -58.46542969 98.13457031 -57.77148438 97.97851562 C-51.06398895 96.57157756 -47.38801949 97.77490871 -41.3125 100.5625 C-29.9636338 104.98380235 -17.31364285 104.41114555 -5.8984375 100.328125 C6.17519448 94.79573299 15.71449786 85.30606659 20.82250977 73.02197266 C22.92557937 67.32925619 23.51096859 62.1686659 23.4375 56.125 C23.42992676 55.24803467 23.42235352 54.37106934 23.41455078 53.4675293 C23.1094617 41.44768738 18.59949425 32.17380136 10.5625 23.3125 C9.2940625 22.1678125 9.2940625 22.1678125 8 21 C7.51144531 20.51917969 7.02289063 20.03835937 6.51953125 19.54296875 C-3.71254756 9.9427998 -15.70976403 8.42388521 -29.1171875 8.66015625 C-43.03248973 9.30932153 -53.45967791 17.38594872 -62.2109375 27.6015625 Z " fill="#FBFDFC" transform="translate(96,16)"/>
<path d="M0 0 C0.85207031 0.32742187 1.70414062 0.65484375 2.58203125 0.9921875 C17.71135712 7.52043205 27.76063757 21.61414721 33.9765625 36.30859375 C39.08669778 51.23305428 37.01000068 68.79221732 30.71484375 82.875 C23.18622778 97.97417408 10.56932039 108.06270309 -5 114 C-11.30285734 115.93173347 -17.11087559 116.3846782 -23.6875 116.375 C-24.65558594 116.37556396 -25.62367187 116.37612793 -26.62109375 116.37670898 C-33.39802944 116.27308438 -38.98886345 115.40811414 -45.34375 112.97265625 C-52.8168988 110.236165 -58.00298769 111.78031135 -65.4375 113.9375 C-77.62112588 117.43961298 -77.62112588 117.43961298 -84 117 C-85.16761255 112.81857455 -84.74883046 110.16046395 -83.49609375 106.03515625 C-83.16802734 104.90529297 -82.83996094 103.77542969 -82.50195312 102.61132812 C-81.79306886 100.24794699 -81.07953427 97.88595565 -80.36132812 95.52539062 C-80.03455078 94.39423828 -79.70777344 93.26308594 -79.37109375 92.09765625 C-78.9059436 90.55863647 -78.9059436 90.55863647 -78.43139648 88.98852539 C-77.91273281 85.39545123 -78.62438363 83.32379919 -80 80 C-85.65395983 65.96827487 -86.60362352 49.12811973 -81.25390625 34.8125 C-73.81416739 18.12523527 -62.9475766 6.8437771 -46.30859375 -0.73828125 C-31.80194484 -6.27033272 -14.2797005 -6.15188238 0 0 Z M-67 18 C-78.23286509 31.56297018 -82.46752275 46.54696158 -81 64 C-79.96901392 69.51904852 -78.50772565 75.16589026 -75.86328125 80.13671875 C-72.71677598 86.92804461 -77.26124663 97.00941811 -79.27172852 103.75439453 C-79.49272217 104.50317871 -79.71371582 105.25196289 -79.94140625 106.0234375 C-80.24606812 107.02769775 -80.24606812 107.02769775 -80.55688477 108.05224609 C-81.14788827 110.31713611 -81.14788827 110.31713611 -81 114 C-78.56210167 113.39740781 -76.12471419 112.79284792 -73.6875 112.1875 C-72.95998535 112.00807861 -72.2324707 111.82865723 -71.48291016 111.64379883 C-67.24551331 110.59075944 -63.05943742 109.43762238 -58.875 108.1875 C-53.41943624 106.69739826 -50.04652809 107.05859708 -44.875 109.4375 C-31.92012279 115.23310296 -16.91669363 114.18573127 -3.87109375 109.546875 C11.18565912 103.76067903 21.36869978 93.87660514 28.25390625 79.35546875 C29.2649621 76.92669621 30.16064239 74.49276558 31 72 C31.4125 70.80375 31.825 69.6075 32.25 68.375 C35.55132654 53.68260981 32.34332263 38.98773556 25.01953125 26.11328125 C15.95443315 12.13865227 3.71781203 4.05953581 -12.1484375 -0.23828125 C-32.8131681 -4.32511945 -52.66185914 2.59977463 -67 18 Z " fill="#D0D9DD" transform="translate(96,16)"/>
<path d="M0 0 C0.84761822 1.70129086 1.6774868 3.41143084 2.5 5.125 C2.9640625 6.07632813 3.428125 7.02765625 3.90625 8.0078125 C5.08976171 11.24556241 5.3179891 13.58039418 5 17 C4 18 3 19 2 20 C2.55719208 25.86517974 5.88099828 29.08005785 10 33 C14.47791091 36.5456496 18.28594351 39.12785454 24 40 C24.28875 39.401875 24.5775 38.80375 24.875 38.1875 C26 36 26 36 28 33 C34.02770138 33.47587116 38.76678289 36.19722957 44 39 C43.75993781 46.08183467 43.75993781 46.08183467 41.66796875 48.609375 C36.33655481 53.01979043 32.69621859 53.55205466 26 53 C12.18400851 50.41634391 1.05846072 41.76892788 -6.8125 30.4375 C-15.1741683 18.10958904 -15.1741683 18.10958904 -14 10 C-11.45040473 1.29321888 -8.66578394 -0.4261861 0 0 Z " fill="#FBFDFB" transform="translate(57,46)"/>
</svg>
